<svg xmlns="http://www.w3.org/2000/svg" version="1.1" xmlns:xlink="http://www.w3.org/1999/xlink" xmlns:svgjs="http://svgjs.dev/svgjs" width="1000" height="1000" viewBox="0 0 1000 1000"><rect width="1000" height="1000" fill="#ffffff"></rect><g transform="matrix(0.7,0,0,0.7,150.17188888046815,304)"><svg viewBox="0 0 357 200" data-background-color="#ffffff" preserveAspectRatio="xMidYMid meet" height="560" width="1000" xmlns="http://www.w3.org/2000/svg" xmlns:xlink="http://www.w3.org/1999/xlink"><defs></defs><g id="tight-bounds" transform="matrix(1,0,0,1,-0.0876633290387474,0)"><svg viewBox="0 0 357.1753266580775 200" height="200" width="357.1753266580775"><g><svg viewBox="0 0 358.96120329136784 200.99999999999997" height="200" width="357.1753266580775"><g><rect width="5.533019493227092" height="200.99999999999997" x="138.4126310756972" y="0" fill="#d2d6dc" opacity="1" stroke-width="0" stroke="transparent" fill-opacity="1" class="rect-o-0" data-fill-palette-color="primary" rx="1%" id="o-0" data-palette-color="#d2d6dc"></rect></g><g transform="matrix(1,0,0,1,158.42999479203186,0.4999999999999858)"><svg viewBox="0 0 200.53120849933597 200" height="200" width="200.53120849933597"><g><svg viewBox="0 0 200.53120849933597 200" height="200" width="200.53120849933597"><g><svg viewBox="0 0 200.53120849933597 200" height="200" width="200.53120849933597"><g transform="matrix(1,0,0,1,0,0)"><svg width="200.53120849933597" viewBox="0.6999960541725159 -33.95000457763672 113.25000762939453 109.70001220703125" height="200" data-palette-color="#d2d6dc"><svg></svg><svg></svg><svg></svg><g class="undefined-text-0" data-fill-palette-color="primary" id="text-0"><path d="M1.85 0.15v0c0-0.667 0.027-1.31 0.08-1.93 0.047-0.613 0.137-1.12 0.27-1.52v0c0.9-0.067 1.593-0.243 2.08-0.53 0.48-0.28 0.813-0.797 1-1.55 0.18-0.747 0.27-1.853 0.27-3.32v0-16.6c0-1.4-0.09-2.45-0.27-3.15-0.187-0.7-0.52-1.193-1-1.48-0.487-0.28-1.197-0.47-2.13-0.57v0c-0.1-0.433-0.173-0.993-0.22-1.68-0.053-0.68-0.08-1.27-0.08-1.77v0c0.733 0.033 1.633 0.057 2.7 0.07 1.067 0.02 2.21 0.037 3.43 0.05 1.213 0.02 2.353 0.03 3.42 0.03v0c0.767 0 1.6-0.017 2.5-0.05 0.9-0.033 1.883-0.05 2.95-0.05v0c1.867 0 3.7 0.127 5.5 0.38 1.8 0.247 3.467 0.703 5 1.37 1.533 0.667 2.883 1.607 4.05 2.82 1.167 1.22 2.077 2.77 2.73 4.65 0.647 1.887 0.97 4.197 0.97 6.93v0c0 2.7-0.333 5.017-1 6.95-0.667 1.933-1.55 3.55-2.65 4.85-1.1 1.3-2.317 2.35-3.65 3.15-1.333 0.8-2.7 1.4-4.1 1.8-1.4 0.4-2.707 0.667-3.92 0.8-1.22 0.133-2.263 0.2-3.13 0.2v0c-0.9 0-2.057 0.01-3.47 0.03-1.42 0.013-2.887 0.03-4.4 0.05-1.52 0.013-2.913 0.03-4.18 0.05-1.267 0.013-2.183 0.02-2.75 0.02zM18.25-3.35v0c0.767 0 1.617-0.16 2.55-0.48 0.933-0.313 1.817-0.93 2.65-1.85 0.833-0.913 1.51-2.263 2.03-4.05 0.513-1.78 0.77-4.17 0.77-7.17v0c0-2.667-0.267-4.893-0.8-6.68-0.533-1.78-1.257-3.18-2.17-4.2-0.92-1.013-1.947-1.737-3.08-2.17-1.133-0.433-2.317-0.65-3.55-0.65v0c-0.633 0-1.24 0.073-1.82 0.22-0.587 0.153-1.013 0.347-1.28 0.58v0l0.65-1.95v22.85c0 1.433 0.117 2.557 0.35 3.37 0.233 0.82 0.643 1.387 1.23 1.7 0.58 0.32 1.403 0.48 2.47 0.48zM38.7-33.95v0c0.7 0.033 1.583 0.057 2.65 0.07 1.067 0.02 2.193 0.037 3.38 0.05 1.18 0.02 2.32 0.03 3.42 0.03 1.1 0 2.067 0 2.9 0v0 24.9c0 1.433 0.117 2.557 0.35 3.37 0.233 0.82 0.643 1.387 1.23 1.7 0.58 0.32 1.403 0.48 2.47 0.48v0l-1.6 3.35c-0.9 0-2.057 0.01-3.47 0.03-1.42 0.013-2.887 0.03-4.4 0.05-1.52 0.013-2.913 0.03-4.18 0.05-1.267 0.013-2.183 0.02-2.75 0.02v0c0-0.667 0.023-1.31 0.07-1.93 0.053-0.613 0.147-1.12 0.28-1.52v0c0.9-0.067 1.593-0.243 2.08-0.53 0.48-0.28 0.813-0.797 1-1.55 0.18-0.747 0.27-1.853 0.27-3.32v0-16.6c0-1.4-0.09-2.45-0.27-3.15-0.187-0.7-0.52-1.193-1-1.48-0.487-0.28-1.197-0.47-2.13-0.57v0c-0.133-0.433-0.217-0.993-0.25-1.68-0.033-0.68-0.05-1.27-0.05-1.77zM63.15-10.05v0c0.933 0.1 1.79 0.293 2.57 0.58 0.787 0.28 1.38 0.62 1.78 1.02v0c-0.367 1.133-0.683 2.467-0.95 4-0.267 1.533-0.467 3.05-0.6 4.55v0c-0.9-0.033-2.05-0.05-3.45-0.05-1.4 0-2.89-0.007-4.47-0.02-1.587-0.02-3.097-0.03-4.53-0.03v0l1.6-3.35h0.7c1.467 0 2.66-0.243 3.58-0.73 0.913-0.48 1.653-1.213 2.22-2.2 0.567-0.98 1.083-2.237 1.55-3.77zM60.2-22.75v0c-0.033 0.8-0.073 1.667-0.12 2.6-0.053 0.933-0.08 1.983-0.08 3.15v0c0 1.267 0.027 2.373 0.08 3.32 0.047 0.953 0.087 1.813 0.12 2.58v0c-0.8 0-1.5-0.033-2.1-0.1-0.6-0.067-1.167-0.183-1.7-0.35v0c-0.133-1.467-0.517-2.443-1.15-2.93-0.633-0.48-1.767-0.72-3.4-0.72v0h-3v-3.35h3c1.767 0 2.943-0.267 3.53-0.8 0.58-0.533 0.887-1.483 0.92-2.85v0c0.533-0.233 1.15-0.383 1.85-0.45 0.7-0.067 1.383-0.1 2.05-0.1zM64.55-33.95v0c0.033 0.8 0.1 1.733 0.2 2.8 0.1 1.067 0.217 2.107 0.35 3.12 0.133 1.02 0.3 1.93 0.5 2.73v0c-0.533 0.233-1.14 0.423-1.82 0.57-0.687 0.153-1.53 0.23-2.53 0.23v0c-0.167-1.133-0.473-2.16-0.92-3.08-0.453-0.913-1.163-1.63-2.13-2.15-0.967-0.513-2.35-0.77-4.15-0.77v0h-4.95l1.55-3.3c2.533 0 4.677-0.01 6.43-0.03 1.747-0.013 3.22-0.03 4.42-0.05 1.2-0.013 2.217-0.037 3.05-0.07zM84.15 0.4v0c-1.1-2.967-2.227-5.883-3.38-8.75-1.147-2.867-2.287-5.667-3.42-8.4-1.133-2.733-2.25-5.35-3.35-7.85v0c-0.733-1.567-1.317-2.76-1.75-3.58-0.433-0.813-0.843-1.38-1.23-1.7-0.38-0.313-0.837-0.52-1.37-0.62v0c-0.133-0.433-0.233-0.94-0.3-1.52-0.067-0.587-0.083-1.23-0.05-1.93v0c0.4 0.033 0.933 0.057 1.6 0.07 0.667 0.02 1.383 0.037 2.15 0.05 0.767 0.02 1.49 0.03 2.17 0.03 0.687 0 1.247 0 1.68 0v0c0.867 0 2.04-0.01 3.52-0.03 1.487-0.013 2.947-0.053 4.38-0.12v0c-0.033 0.767-0.083 1.433-0.15 2-0.067 0.567-0.15 1.05-0.25 1.45v0c-0.9 0.133-1.543 0.357-1.93 0.67-0.38 0.32-0.513 0.82-0.4 1.5 0.12 0.687 0.447 1.663 0.98 2.93v0c0.767 1.867 1.49 3.683 2.17 5.45 0.687 1.767 1.353 3.6 2 5.5 0.653 1.9 1.313 3.983 1.98 6.25v0h-1.45c0.967-2.2 1.843-4.227 2.63-6.08 0.78-1.847 1.537-3.72 2.27-5.62 0.733-1.9 1.483-3.967 2.25-6.2v0c0.4-1.2 0.483-2.2 0.25-3-0.233-0.8-0.933-1.267-2.1-1.4v0c-0.133-0.4-0.233-0.883-0.3-1.45-0.067-0.567-0.1-1.233-0.1-2v0c0.433 0.033 0.967 0.057 1.6 0.07 0.633 0.02 1.283 0.037 1.95 0.05 0.667 0.02 1.267 0.03 1.8 0.03v0c0.833 0 1.733-0.017 2.7-0.05 0.967-0.033 1.733-0.067 2.3-0.1v0c0 0.667-0.04 1.283-0.12 1.85-0.087 0.567-0.197 1.1-0.33 1.6v0c-0.9 0.2-1.643 0.683-2.23 1.45-0.58 0.767-1.22 2.033-1.92 3.8v0c-1.633 4.2-3.293 8.373-4.98 12.52-1.68 4.153-3.47 8.413-5.37 12.78v0c-0.5 0.167-1.11 0.267-1.83 0.3-0.713 0.033-1.403 0.05-2.07 0.05z" data-fill-palette-color="primary" fill="#d2d6dc" opacity="1"></path><path d="M0.7 3.7v0c0.4 0.033 0.943 0.057 1.63 0.07 0.68 0.02 1.42 0.037 2.22 0.05 0.8 0.02 1.543 0.03 2.23 0.03 0.68 0 1.22 0 1.62 0v0c0.533 0 1.277 0 2.23 0 0.947 0 1.953-0.017 3.02-0.05 1.067-0.033 1.967-0.067 2.7-0.1v0c0 0.6-0.023 1.19-0.07 1.77-0.053 0.587-0.147 1.147-0.28 1.68v0c-1.067 0.133-1.84 0.357-2.32 0.67-0.487 0.32-0.697 0.853-0.63 1.6 0.067 0.753 0.367 1.88 0.9 3.38v0c0.5 1.467 1 3.017 1.5 4.65 0.5 1.633 1.017 3.357 1.55 5.17 0.533 1.82 1.083 3.713 1.65 5.68v0h-2.05l8.6-24.5c0.533-0.133 1.127-0.227 1.78-0.28 0.647-0.047 1.287-0.07 1.92-0.07v0c1.133 2.867 2.217 5.65 3.25 8.35 1.033 2.7 2.06 5.4 3.08 8.1 1.013 2.7 2.02 5.483 3.02 8.35v0h-1.75l4.3-13.95c0.767-2.5 0.943-4.25 0.53-5.25-0.42-1-1.447-1.633-3.08-1.9v0c-0.2-0.5-0.323-1.067-0.37-1.7-0.053-0.633-0.08-1.217-0.08-1.75v0c0.7 0.033 1.6 0.067 2.7 0.1 1.1 0.033 2.1 0.05 3 0.05v0c0.767 0 1.677-0.017 2.73-0.05 1.047-0.033 1.903-0.067 2.57-0.1v0c0 0.567-0.017 1.14-0.05 1.72-0.033 0.587-0.167 1.163-0.4 1.73v0c-0.567 0.2-1.067 0.523-1.5 0.97-0.433 0.453-0.84 1.163-1.22 2.13-0.387 0.967-0.863 2.333-1.43 4.1v0l-7 23.35c-0.467 0.133-1.157 0.233-2.07 0.3-0.92 0.067-1.747 0.1-2.48 0.1v0c-1-2.8-1.983-5.493-2.95-8.08-0.967-2.58-1.95-5.18-2.95-7.8-1-2.613-2.083-5.32-3.25-8.12v0h1.75l-8.25 23.65c-0.367 0.1-0.823 0.177-1.37 0.23-0.553 0.047-1.103 0.08-1.65 0.1-0.553 0.013-1.013 0.02-1.38 0.02v0c-1.333-4.467-2.65-8.8-3.95-13-1.3-4.2-2.533-8.033-3.7-11.5v0c-0.633-1.933-1.133-3.327-1.5-4.18-0.367-0.847-0.717-1.403-1.05-1.67-0.333-0.267-0.8-0.433-1.4-0.5v0c-0.133-0.533-0.217-1.1-0.25-1.7-0.033-0.6-0.05-1.217-0.05-1.85zM51.35 3.7v0c0.7 0.033 1.583 0.057 2.65 0.07 1.067 0.02 2.193 0.037 3.38 0.05 1.18 0.02 2.32 0.03 3.42 0.03 1.1 0 2.067 0 2.9 0v0 24.9c0 1.433 0.117 2.557 0.35 3.37 0.233 0.82 0.643 1.387 1.23 1.7 0.58 0.32 1.403 0.48 2.47 0.48v0l-1.6 3.35c-0.9 0-2.06 0.01-3.48 0.03-1.413 0.013-2.88 0.03-4.4 0.05-1.513 0.013-2.903 0.03-4.17 0.05-1.267 0.013-2.183 0.02-2.75 0.02v0c0-0.667 0.023-1.31 0.07-1.93 0.053-0.613 0.147-1.12 0.28-1.52v0c0.9-0.067 1.59-0.243 2.07-0.53 0.487-0.28 0.82-0.797 1-1.55 0.187-0.747 0.28-1.853 0.28-3.32v0-16.6c0-1.4-0.093-2.45-0.28-3.15-0.18-0.7-0.513-1.193-1-1.48-0.48-0.28-1.187-0.47-2.12-0.57v0c-0.133-0.433-0.217-0.993-0.25-1.68-0.033-0.68-0.05-1.27-0.05-1.77zM75.8 27.6v0c0.933 0.1 1.793 0.293 2.58 0.58 0.78 0.28 1.37 0.62 1.77 1.02v0c-0.367 1.133-0.683 2.467-0.95 4-0.267 1.533-0.467 3.05-0.6 4.55v0c-0.9-0.033-2.05-0.05-3.45-0.05-1.4 0-2.893-0.007-4.48-0.02-1.58-0.02-3.087-0.03-4.52-0.03v0l1.6-3.35h0.7c1.467 0 2.66-0.243 3.58-0.73 0.913-0.48 1.653-1.213 2.22-2.2 0.567-0.98 1.083-2.237 1.55-3.77zM72.85 14.9v0c-0.033 0.8-0.077 1.667-0.13 2.6-0.047 0.933-0.07 1.983-0.07 3.15v0c0 1.267 0.023 2.373 0.07 3.32 0.053 0.953 0.097 1.813 0.13 2.58v0c-0.8 0-1.5-0.033-2.1-0.1-0.6-0.067-1.167-0.183-1.7-0.35v0c-0.133-1.467-0.517-2.443-1.15-2.93-0.633-0.48-1.767-0.72-3.4-0.72v0h-3v-3.35h3c1.767 0 2.943-0.267 3.53-0.8 0.58-0.533 0.887-1.483 0.92-2.85v0c0.533-0.233 1.15-0.383 1.85-0.45 0.7-0.067 1.383-0.1 2.05-0.1zM77.2 3.7v0c0.033 0.8 0.1 1.733 0.2 2.8 0.1 1.067 0.217 2.107 0.35 3.12 0.133 1.02 0.3 1.93 0.5 2.73v0c-0.533 0.233-1.143 0.423-1.83 0.57-0.68 0.153-1.52 0.23-2.52 0.23v0c-0.167-1.133-0.477-2.16-0.93-3.08-0.447-0.913-1.153-1.63-2.12-2.15-0.967-0.513-2.35-0.77-4.15-0.77v0h-4.95l1.55-3.3c2.533 0 4.673-0.01 6.42-0.03 1.753-0.013 3.23-0.03 4.43-0.05 1.2-0.013 2.217-0.037 3.05-0.07zM83.1 3.7v0c0.633 0.033 1.467 0.067 2.5 0.1 1.033 0.033 1.983 0.05 2.85 0.05v0c0.867 0 1.933-0.01 3.2-0.03 1.267-0.013 2.54-0.03 3.82-0.05 1.287-0.013 2.397-0.02 3.33-0.02v0c3.167 0 5.707 0.267 7.62 0.8 1.92 0.533 3.323 1.367 4.21 2.5 0.88 1.133 1.32 2.583 1.32 4.35v0c0 1.967-0.677 3.667-2.03 5.1-1.347 1.433-3.27 2.333-5.77 2.7v0c2.233 0.133 4.073 0.54 5.52 1.22 1.453 0.687 2.53 1.653 3.23 2.9 0.7 1.253 1.05 2.78 1.05 4.58v0c0 1.9-0.493 3.583-1.48 5.05-0.98 1.467-2.553 2.617-4.72 3.45-2.167 0.833-5.05 1.25-8.65 1.25v0c-1.333 0-2.71 0-4.13 0-1.413 0-2.82 0.01-4.22 0.03-1.4 0.013-2.743 0.03-4.03 0.05-1.28 0.013-2.487 0.037-3.62 0.07v0c0-0.667 0.023-1.31 0.07-1.93 0.053-0.613 0.147-1.12 0.28-1.52v0c0.9-0.067 1.593-0.243 2.08-0.53 0.48-0.28 0.813-0.797 1-1.55 0.18-0.747 0.27-1.853 0.27-3.32v0-16.6c0-1.4-0.09-2.45-0.27-3.15-0.187-0.7-0.52-1.193-1-1.48-0.487-0.28-1.197-0.47-2.13-0.57v0c-0.1-0.433-0.177-0.993-0.23-1.68-0.047-0.68-0.07-1.27-0.07-1.77zM94.75 7.9l0.7-2.2v23.55c0 1.433 0.15 2.517 0.45 3.25 0.3 0.733 0.733 1.223 1.3 1.47 0.567 0.253 1.233 0.38 2 0.38v0c1.533 0 2.773-0.517 3.72-1.55 0.953-1.033 1.43-2.467 1.43-4.3v0c0-1.3-0.183-2.377-0.55-3.23-0.367-0.847-0.893-1.513-1.58-2-0.68-0.48-1.493-0.83-2.44-1.05-0.953-0.213-1.997-0.32-3.13-0.32v0h-2.85v-3.35h3.4c1.367 0 2.493-0.233 3.38-0.7 0.88-0.467 1.537-1.133 1.97-2 0.433-0.867 0.65-1.9 0.65-3.1v0c0-1.233-0.26-2.267-0.78-3.1-0.513-0.833-1.18-1.45-2-1.85-0.813-0.4-1.72-0.6-2.72-0.6v0c-0.567 0-1.077 0.05-1.53 0.15-0.447 0.1-0.92 0.283-1.42 0.55z" data-fill-palette-color="primary" fill="#d2d6dc" opacity="1"></path><path d="M29.45 51.1v10.45c0 2.867-0.2 5.207-0.6 7.02-0.4 1.82-1.183 3.313-2.35 4.48v0c-1 0.933-2.223 1.617-3.67 2.05-1.453 0.433-3.113 0.65-4.98 0.65v0c-3.267 0-5.85-0.433-7.75-1.3-1.9-0.867-3.25-2.217-4.05-4.05-0.8-1.833-1.2-4.15-1.2-6.95v0-13.25c0-1.467-0.083-2.56-0.25-3.28-0.167-0.713-0.483-1.213-0.95-1.5-0.467-0.28-1.133-0.487-2-0.62v0c-0.133-0.5-0.223-1.043-0.27-1.63-0.053-0.58-0.08-1.187-0.08-1.82v0c0.667 0.033 1.61 0.067 2.83 0.1 1.213 0.033 2.453 0.05 3.72 0.05v0c0.6 0 1.343 0 2.23 0 0.88 0 1.78-0.01 2.7-0.03 0.913-0.013 1.753-0.03 2.52-0.05 0.767-0.013 1.35-0.037 1.75-0.07v0c0 0.667-0.017 1.283-0.05 1.85-0.033 0.567-0.117 1.1-0.25 1.6v0c-0.9 0.133-1.583 0.34-2.05 0.62-0.467 0.287-0.783 0.787-0.95 1.5-0.167 0.72-0.25 1.813-0.25 3.28v0 12.45c0 2 0.217 3.707 0.65 5.12 0.433 1.42 1.117 2.487 2.05 3.2 0.933 0.72 2.15 1.08 3.65 1.08v0c0.767 0 1.577-0.16 2.43-0.48 0.847-0.313 1.553-0.853 2.12-1.62v0c0.367-0.433 0.66-1 0.88-1.7 0.213-0.7 0.387-1.61 0.52-2.73 0.133-1.113 0.2-2.52 0.2-4.22v0-9.9c0-1.633-0.1-2.91-0.3-3.83-0.2-0.913-0.54-1.57-1.02-1.97-0.487-0.4-1.163-0.667-2.03-0.8v0c-0.1-0.633-0.173-1.233-0.22-1.8-0.053-0.567-0.08-1.117-0.08-1.65v0c0.467 0.033 1.017 0.057 1.65 0.07 0.633 0.02 1.293 0.037 1.98 0.05 0.68 0.02 1.27 0.03 1.77 0.03v0c0.9 0 1.833-0.017 2.8-0.05 0.967-0.033 1.767-0.067 2.4-0.1v0c0 0.6-0.023 1.183-0.07 1.75-0.053 0.567-0.163 1.133-0.33 1.7v0c-0.833 0.1-1.473 0.35-1.92 0.75-0.453 0.4-0.763 1.033-0.93 1.9-0.167 0.867-0.25 2.083-0.25 3.65zM40.1 66.7v-16.7c0-1.4-0.083-2.45-0.25-3.15-0.167-0.7-0.49-1.193-0.97-1.48-0.487-0.28-1.18-0.47-2.08-0.57v0c-0.133-0.433-0.233-0.977-0.3-1.63-0.067-0.647-0.1-1.253-0.1-1.82v0c0.567 0.033 1.343 0.057 2.33 0.07 0.98 0.02 2.013 0.037 3.1 0.05 1.08 0.02 2.003 0.03 2.77 0.03v0c0.767 0 1.633-0.01 2.6-0.03 0.967-0.013 1.917-0.03 2.85-0.05 0.933-0.013 1.733-0.037 2.4-0.07v0c0 0.6-0.017 1.183-0.05 1.75-0.033 0.567-0.15 1.133-0.35 1.7v0c-0.9 0.1-1.59 0.283-2.07 0.55-0.487 0.267-0.813 0.757-0.98 1.47-0.167 0.72-0.25 1.78-0.25 3.18v0 16.7c0 1.433 0.083 2.517 0.25 3.25 0.167 0.733 0.5 1.24 1 1.52 0.5 0.287 1.183 0.463 2.05 0.53v0c0.133 0.4 0.233 0.923 0.3 1.57 0.067 0.653 0.1 1.28 0.1 1.88v0c-0.8-0.067-1.867-0.107-3.2-0.12-1.333-0.02-2.767-0.03-4.3-0.03v0c-1.533 0-3.073 0.01-4.62 0.03-1.553 0.013-2.863 0.053-3.93 0.12v0c0-0.567 0.043-1.183 0.13-1.85 0.08-0.667 0.17-1.2 0.27-1.6v0c0.9-0.067 1.593-0.243 2.08-0.53 0.48-0.28 0.803-0.787 0.97-1.52 0.167-0.733 0.25-1.817 0.25-3.25z" data-fill-palette-color="primary" fill="#d2d6dc" opacity="1"></path></g></svg></g></svg></g></svg></g></svg></g><g transform="matrix(1,0,0,1,0,38.535856573705175)"><svg viewBox="0 0 123.92828685258962 123.92828685258962" height="123.92828685258962" width="123.92828685258962"><g><svg xmlns="http://www.w3.org/2000/svg" xmlns:xlink="http://www.w3.org/1999/xlink" version="1.1" x="0" y="0" viewBox="5 5 90 90" enable-background="new 0 0 100 100" xml:space="preserve" height="123.92828685258962" width="123.92828685258962" class="icon-icon-0" data-fill-palette-color="accent" id="icon-0"><path d="M50 5C25.1 5 5 25.1 5 50c0 24.8 20.1 45 45 45 24.9 0 45-20.2 45-45C95 25.1 74.9 5 50 5L50 5zM50 77c-14.9 0-27-12.1-27-27 0-14.9 12.1-27 27-27 14.9 0 27 12.1 27 27C77 64.9 64.9 77 50 77L50 77zM40.3 30.7C34 33.9 29.5 40 28.6 47.3h8C36.8 40.7 38.2 35 40.3 30.7L40.3 30.7zM50 70.7c3.1 0 7.3-6.8 8-18H42C42.7 63.9 46.9 70.7 50 70.7L50 70.7zM28.6 52.7c1 7.5 5.7 13.8 12.4 16.9-2.4-4.2-4-10-4.4-16.9H28.6zM59.7 30.7c2.1 4.3 3.5 10 3.8 16.6h7.9C70.5 40 66 33.9 59.7 30.7L59.7 30.7zM50 28.4c-3.2 0-7.5 7.1-8 18.9H58C57.5 35.5 53.2 28.4 50 28.4L50 28.4zM59 69.5c6.6-3.1 11.4-9.3 12.4-16.9h-8C63 59.5 61.5 65.4 59 69.5z" fill="#d2d6dc" data-fill-palette-color="accent"></path></svg></g></svg></g></svg></g></svg><rect width="357.1753266580775" height="200" fill="none" stroke="none" visibility="hidden"></rect></g></svg></g></svg>