<svg width="41" height="45" viewBox="0 0 41 45" fill="none" xmlns="http://www.w3.org/2000/svg">
<rect opacity="0.3" x="0.413086" y="0.0419922" width="40.2067" height="44.577" rx="6.55544" fill="#9CD5D7"/>
<path d="M27.0001 15.805C27.0001 12.505 24.3151 9.80499 21.0001 9.80499C17.6851 9.80499 15.0001 12.505 15.0001 15.805C15.0001 19.12 17.6851 21.805 21.0001 21.805C24.3151 21.805 27.0001 19.12 27.0001 15.805ZM10.8601 22.99C10.1771 23.3825 9.57817 23.9058 9.0976 24.53C8.61703 25.1543 8.26426 25.8671 8.05946 26.6278C7.85466 27.3885 7.80185 28.1821 7.90406 28.9632C8.00628 29.7443 8.2615 30.4976 8.65513 31.18C9.45103 32.5602 10.7625 33.5678 12.3011 33.9813C13.8397 34.3948 15.4796 34.1803 16.8601 33.385C17.5427 32.9901 18.1408 32.4646 18.6203 31.8385C19.0998 31.2124 19.4512 30.498 19.6546 29.7361C19.858 28.9742 19.9093 28.1797 19.8055 27.3979C19.7018 26.6162 19.4451 25.8625 19.0501 25.18C17.4001 22.315 13.7251 21.34 10.8601 22.99ZM25.1401 33.385C28.0201 35.035 31.6801 34.06 33.3451 31.195C34.9951 28.315 34.0201 24.655 31.1401 22.99C28.2751 21.34 24.6001 22.315 22.9501 25.18C22.5551 25.8625 22.2984 26.6162 22.1947 27.3979C22.091 28.1797 22.1423 28.9742 22.3457 29.7361C22.549 30.498 22.9005 31.2124 23.38 31.8385C23.8594 32.4646 24.4575 32.9901 25.1401 33.385Z" fill="#9CD5D7"/>
</svg>
