<svg width="27" height="26" viewBox="0 0 27 26" fill="none" xmlns="http://www.w3.org/2000/svg">
<path d="M20.0595 15.2053C19.4975 15.2053 18.9585 14.982 18.561 14.5846C18.1636 14.1872 17.9403 13.6481 17.9403 13.0861C17.9403 12.524 18.1636 11.985 18.561 11.5876C18.9585 11.1902 19.4975 10.9669 20.0595 10.9669C20.6216 10.9669 21.1606 11.1902 21.558 11.5876C21.9555 11.985 22.1787 12.524 22.1787 13.0861C22.1787 13.6481 21.9555 14.1872 21.558 14.5846C21.1606 14.982 20.6216 15.2053 20.0595 15.2053ZM13.7019 15.2053C13.1399 15.2053 12.6008 14.982 12.2034 14.5846C11.806 14.1872 11.5827 13.6481 11.5827 13.0861C11.5827 12.524 11.806 11.985 12.2034 11.5876C12.6008 11.1902 13.1399 10.9669 13.7019 10.9669C14.264 10.9669 14.803 11.1902 15.2004 11.5876C15.5979 11.985 15.8211 12.524 15.8211 13.0861C15.8211 13.6481 15.5979 14.1872 15.2004 14.5846C14.803 14.982 14.264 15.2053 13.7019 15.2053ZM7.3443 15.2053C6.78225 15.2053 6.24323 14.982 5.8458 14.5846C5.44837 14.1872 5.2251 13.6481 5.2251 13.0861C5.2251 12.524 5.44837 11.985 5.8458 11.5876C6.24323 11.1902 6.78225 10.9669 7.3443 10.9669C7.90635 10.9669 8.44538 11.1902 8.84281 11.5876C9.24024 11.985 9.46351 12.524 9.46351 13.0861C9.46351 13.6481 9.24024 14.1872 8.84281 14.5846C8.44538 14.982 7.90635 15.2053 7.3443 15.2053Z" fill="#F17476"/>
</svg>
