<svg width="28" height="28" viewBox="0 0 28 28" fill="none" xmlns="http://www.w3.org/2000/svg">
<path d="M3.78999 2.77301L24.86 12.85C25.073 12.9517 25.2528 13.1116 25.3787 13.3112C25.5046 13.5108 25.5714 13.742 25.5714 13.978C25.5714 14.214 25.5046 14.4452 25.3787 14.6448C25.2528 14.8444 25.073 15.0043 24.86 15.106L3.78999 25.183C3.57399 25.2865 3.33282 25.3257 3.09517 25.296C2.85751 25.2664 2.63339 25.169 2.44945 25.0157C2.26552 24.8623 2.12952 24.6593 2.05764 24.4308C1.98576 24.2024 1.98102 23.9581 2.04399 23.727L4.15199 15.999C4.17779 15.9043 4.2309 15.8193 4.3047 15.7545C4.3785 15.6898 4.46972 15.6482 4.56699 15.635L14.777 14.248C14.8197 14.2419 14.86 14.2249 14.8942 14.1987C14.9284 14.1724 14.9552 14.1377 14.972 14.098L14.99 14.036C14.9979 13.9802 14.9867 13.9233 14.9582 13.8747C14.9297 13.826 14.8855 13.7884 14.833 13.768L14.778 13.753L4.57799 12.366C4.4809 12.3526 4.3899 12.3109 4.31629 12.2462C4.24268 12.1815 4.18972 12.0966 4.16399 12.002L2.04399 4.23001C1.98076 3.99887 1.98531 3.75443 2.05708 3.52581C2.12886 3.29718 2.26483 3.094 2.44882 2.94047C2.6328 2.78694 2.85703 2.68953 3.09482 2.65984C3.3326 2.63015 3.5739 2.66943 3.78999 2.77301Z" fill="#397090"/>
</svg>
