<svg width="41" height="45" viewBox="0 0 41 45" fill="none" xmlns="http://www.w3.org/2000/svg">
<rect opacity="0.3" width="40.2067" height="44.577" rx="6.55544" fill="#F68B84"/>
<path d="M21.7348 15.1609C21.7348 13.9674 22.209 12.8229 23.0529 11.9789C23.8968 11.135 25.0414 10.6609 26.2348 10.6609C27.4283 10.6609 28.5729 11.135 29.4168 11.9789C30.2607 12.8229 30.7348 13.9674 30.7348 15.1609V18.1609L32.7148 19.8394C32.8318 19.9388 32.9155 20.0718 32.9545 20.2203C32.9936 20.3688 32.9861 20.5257 32.9331 20.6698C32.8801 20.8139 32.7841 20.9383 32.6582 21.0261C32.5322 21.1139 32.3824 21.161 32.2288 21.1609H20.2393C20.0859 21.1607 19.9363 21.1134 19.8106 21.0254C19.6849 20.9375 19.5892 20.8131 19.5364 20.6691C19.4836 20.5251 19.4762 20.3683 19.5153 20.2199C19.5543 20.0716 19.6379 19.9388 19.7548 19.8394L21.7348 18.1609V15.1609ZM26.2348 24.1609C25.7694 24.1609 25.3154 24.0167 24.9353 23.7481C24.5552 23.4795 24.2677 23.0997 24.1123 22.6609H28.3558C28.2007 23.0998 27.9132 23.4797 27.5331 23.7484C27.1529 24.017 26.6988 24.1612 26.2333 24.1609H26.2348ZM20.2348 17.4664L18.7843 18.6949C17.1868 20.0494 18.1438 22.6609 20.2393 22.6609H22.5193L22.6978 23.1619C22.9996 24.0153 23.5997 24.7308 24.3877 25.1763C25.1756 25.6218 26.0981 25.7673 26.9848 25.5859V30.1609C26.9848 30.9566 26.6688 31.7196 26.1062 32.2822C25.5436 32.8448 24.7805 33.1609 23.9848 33.1609H14.9848C14.587 33.1609 14.2055 33.0029 13.9242 32.7216C13.6429 32.4403 13.4848 32.0587 13.4848 31.6609V16.6609C13.4848 16.2631 13.6429 15.8816 13.9242 15.6003C14.2055 15.319 14.587 15.1609 14.9848 15.1609H20.2348V17.4664Z" fill="#F68B84"/>
</svg>
