<svg width="41" height="45" viewBox="0 0 41 45" fill="none" xmlns="http://www.w3.org/2000/svg">
<rect opacity="0.3" x="0.206543" y="0.0419922" width="40.2067" height="44.577" rx="6.55544" fill="#FDBDA4"/>
<path d="M20.9998 24.25C23.0709 24.25 24.7498 22.571 24.7498 20.5C24.7498 18.4289 23.0709 16.75 20.9998 16.75C18.9287 16.75 17.2498 18.4289 17.2498 20.5C17.2498 22.571 18.9287 24.25 20.9998 24.25Z" fill="#FDBDA4"/>
<path d="M28.656 10.5H13.3435C12.7221 10.5006 12.1264 10.7478 11.687 11.1872C11.2476 11.6266 11.0005 12.2223 10.9998 12.8437V28.1562C10.9998 29.4487 12.051 30.5 13.3435 30.5H19.7498V33H14.7498V35.5H27.2498V33H22.2498V30.5H28.656C29.2774 30.4993 29.8732 30.2522 30.3126 29.8128C30.752 29.3734 30.9991 28.7776 30.9998 28.1562V12.8437C30.9991 12.2223 30.752 11.6266 30.3126 11.1872C29.8732 10.7478 29.2774 10.5006 28.656 10.5ZM20.9998 26.75C17.5535 26.75 14.7498 23.9462 14.7498 20.5C14.7498 17.0537 17.5535 14.25 20.9998 14.25C24.446 14.25 27.2498 17.0537 27.2498 20.5C27.2498 23.9462 24.446 26.75 20.9998 26.75Z" fill="#FDBDA4"/>
</svg>
